<?xml version="1.0" standalone="no"?><!DOCTYPE svg PUBLIC "-//W3C//DTD SVG 1.1//EN" "http://www.w3.org/Graphics/SVG/1.1/DTD/svg11.dtd"><svg t="1723116979818" class="icon" viewBox="0 0 1024 1024" version="1.1" xmlns="http://www.w3.org/2000/svg" p-id="46887" xmlns:xlink="http://www.w3.org/1999/xlink" width="64" height="64"><path d="M523.636364 554.658909L651.636364 768H372.363636l128-213.341091V488.727273h23.272728v65.931636zM551.889455 651.636364L512 581.818182l-39.889455 69.818182h79.77891z m13.312 23.272727h-106.40291L418.909091 744.727273h186.181818l-39.889454-69.818182z m-199.493819-5.166546A232.261818 232.261818 0 0 1 279.272727 488.727273c0-128.535273 104.192-232.727273 232.727273-232.727273s232.727273 104.192 232.727273 232.727273a232.261818 232.261818 0 0 1-86.434909 181.015272l-12.683637-19.712a209.454545 209.454545 0 1 0-267.240727 0l-12.660364 19.712z m38.074182-59.22909a162.909091 162.909091 0 1 1 216.436364 0l-12.776727-19.851637a139.636364 139.636364 0 1 0-190.88291 0l-12.776727 19.851637z m38.586182-59.997091a93.090909 93.090909 0 1 1 139.264 0l-13.242182-20.619637a69.818182 69.818182 0 1 0-112.779636 0l-13.265455 20.619637zM512 0l442.181818 256v512L512 1024 69.818182 768V256L512 0z m0 28.276364L93.090909 270.149818v483.700364l418.909091 241.873454 418.909091-241.873454V270.149818L512 28.276364z" fill="#2c2c2c" p-id="46888"></path></svg>