<?xml version="1.0" standalone="no"?><!DOCTYPE svg PUBLIC "-//W3C//DTD SVG 1.1//EN" "http://www.w3.org/Graphics/SVG/1.1/DTD/svg11.dtd"><svg t="1783842281827" class="icon" viewBox="0 0 1024 1024" version="1.1" xmlns="http://www.w3.org/2000/svg" p-id="6113" xmlns:xlink="http://www.w3.org/1999/xlink" width="256" height="256"><path d="M700.330667 544.298667a42.666667 42.666667 0 0 1 0 60.373333l-78.08 77.952L896 682.666667a42.666667 42.666667 0 1 1 0 85.333333h-273.664l77.994667 77.994667A42.666667 42.666667 0 0 1 640 906.368l-150.869333-150.869333a42.666667 42.666667 0 0 1 0-60.330667L640 544.298667a42.666667 42.666667 0 0 1 60.330667 0zM489.130667 128a85.333333 85.333333 0 0 1 66.858666 32.256l4.181334 5.76L620.16 256H853.333333a85.333333 85.333333 0 0 1 85.12 78.933333L938.666667 341.333333v213.333334h-85.333334V341.333333H170.666667v426.666667h213.333333v85.333333H170.666667a85.333333 85.333333 0 0 1-85.12-78.933333L85.333333 768V213.333333a85.333333 85.333333 0 0 1 78.933334-85.12L170.666667 128h318.506666z m0 85.333333H170.666667v42.666667h346.922666l-28.416-42.666667z" fill="#ffffff" p-id="6114"></path><path d="M384 810.666667m-42.666667 0a42.666667 42.666667 0 1 0 85.333334 0 42.666667 42.666667 0 1 0-85.333334 0Z" fill="#ffffff" p-id="6115"></path><path d="M896 554.666667m-42.666667 0a42.666667 42.666667 0 1 0 85.333334 0 42.666667 42.666667 0 1 0-85.333334 0Z" fill="#ffffff" p-id="6116"></path></svg>