<?xml version="1.0" standalone="no"?><!DOCTYPE svg PUBLIC "-//W3C//DTD SVG 1.1//EN" "http://www.w3.org/Graphics/SVG/1.1/DTD/svg11.dtd"><svg t="1768015807708" class="icon" viewBox="0 0 1092 1024" version="1.1" xmlns="http://www.w3.org/2000/svg" p-id="11584" xmlns:xlink="http://www.w3.org/1999/xlink" width="25.59375" height="24"><path d="M362.428 34.133l68.198 136.465 525.107 0.069c45.67 0 89.088 36.864 100.08 83.285l1.706 9.42 0.614 9.695v614.4c0 48.742-41.915 94.89-92.706 101.785l-9.694 0.615h-819.2c-48.742 0-94.89-41.916-101.785-92.706l-0.615-9.694V136.533c0-48.742 41.916-94.89 92.706-101.785l9.694-0.615h225.895z m-223.505 68.199l-4.984 0.273c-15.36 2.048-31.539 19.934-31.539 33.928l-0.068 748.544 0.273 4.984c2.048 15.36 19.934 31.539 33.928 31.539l816.811 0.068 4.983-0.273c15.36-2.048 31.54-19.934 31.54-33.928l0.068-612.011-0.273-4.983c-2.048-15.36-19.934-31.54-33.929-31.54H388.506L320.17 102.332H138.923z m509.747 317.44c13.653-13.585 33.997-13.585 47.582 0l142.677 142.745c13.653 13.654 13.653 33.997-6.758 47.582L689.493 752.845c-13.653 13.653-33.996 13.653-47.65 0-13.585-13.654-13.585-33.997 0-47.582l81.579-81.579H268.083c-20.48 0-33.997-13.585-33.997-33.997 0-20.343 13.585-33.928 33.929-33.928h468.992l-88.337-88.405c-13.653-13.585-13.653-33.997 0-47.582z" fill="#ffffff" p-id="11585"></path></svg>