<?xml version="1.0" standalone="no"?><!DOCTYPE svg PUBLIC "-//W3C//DTD SVG 1.1//EN" "http://www.w3.org/Graphics/SVG/1.1/DTD/svg11.dtd"><svg t="1768031035157" class="icon" viewBox="0 0 1024 1024" version="1.1" xmlns="http://www.w3.org/2000/svg" p-id="7522" xmlns:xlink="http://www.w3.org/1999/xlink" width="24" height="24"><path d="M313.728 853.333333H168.106667a84.394667 84.394667 0 0 1-58.538667-23.338666A78.293333 78.293333 0 0 1 85.333333 773.546667V250.410667c0-21.162667 8.704-41.429333 24.234667-56.405334C125.098667 179.072 146.176 170.666667 168.106667 170.666667h331.221333c19.2 0.341333 37.674667 7.082667 52.266667 19.114666 14.592 12.032 24.405333 28.586667 27.733333 46.805334l6.613333 36.693333c0.938667 6.229333 4.224 11.946667 9.173334 16.042667a27.690667 27.690667 0 0 0 17.92 6.272h242.816c21.973333 0 43.050667 8.405333 58.581333 23.381333 15.530667 14.933333 24.234667 35.242667 24.234667 56.405333v174.037334a26.624 26.624 0 0 1-8.234667 18.645333 28.16 28.16 0 0 1-38.869333 0.170667 26.112 26.112 0 0 1-8.106667-18.816v-174.08a26.112 26.112 0 0 0-8.106667-18.773334 28.16 28.16 0 0 0-19.456-7.808h-242.901333c-19.498667 0.042667-38.4-6.528-53.333333-18.602666a79.146667 79.146667 0 0 1-28.330667-47.317334l-6.613333-36.693333a25.813333 25.813333 0 0 0-9.173334-16.042667 27.690667 27.690667 0 0 0-17.92-6.272H166.528a28.672 28.672 0 0 0-19.370667 7.936 26.624 26.624 0 0 0-8.234666 18.645334v523.178666c0 7.04 2.901333 13.824 8.106666 18.773334a28.16 28.16 0 0 0 19.498667 7.808h147.242667a28.16 28.16 0 0 1 19.541333 7.765333c5.12 4.992 8.064 11.776 8.064 18.773333a26.112 26.112 0 0 1-8.106667 18.816 28.16 28.16 0 0 1-19.498666 7.808z" fill="#ffffff" p-id="7523"></path><path d="M866.133333 757.76c0-37.888-18.602667-57.514667-38.186666-69.12a118.912 118.912 0 0 0-40.661334-14.634667l-0.256-0.085333h-0.085333a29.866667 29.866667 0 0 1-25.301333-21.589333 90.965333 90.965333 0 0 0-28.501334-45.653334c-14.549333-12.117333-36.906667-22.144-71.808-22.144-38.912 0-59.861333 13.141333-72.917333 27.946667-14.293333 16.213333-21.674667 37.376-27.392 57.770667a29.866667 29.866667 0 0 1-28.757333 21.76c-6.826667 0-27.52 3.285333-45.568 14.762666-16.384 10.453333-30.165333 27.050667-30.165334 56.96 0 27.093333 9.770667 40.106667 19.925334 47.488 11.52 8.32 27.690667 12.074667 43.221333 12.202667h0.213333l2.56-0.085333 6.869334-0.085334c5.674667-0.085333 13.653333-0.085333 23.296-0.128a83426.133333 83426.133333 0 0 1 249.514666 0.298667c18.901333 0 34.645333-4.821333 45.226667-13.738667 9.642667-8.234667 18.773333-23.082667 18.773333-51.925333z m59.733334 0c0 42.837333-14.336 75.776-39.850667 97.450667-24.661333 20.906667-55.893333 27.989333-83.882667 27.989333h-0.085333a79535.36 79535.36 0 0 0-249.258667-0.384l-22.826666 0.128-6.101334 0.128h-0.597333l1.066667-0.128a29.824 29.824 0 0 1-3.797334 0.256c-23.296 0-53.76-5.205333-79.104-23.552C414.464 840.106667 396.8 808.362667 396.8 763.733333c0-53.674667 27.306667-87.893333 57.813333-107.306666a161.450667 161.450667 0 0 1 54.826667-21.632c6.528-19.2 16.682667-41.984 34.133333-61.781334 25.088-28.501333 62.805333-48.213333 117.76-48.213333 47.232 0 83.584 13.909333 110.08 36.053333 20.138667 16.896 33.322667 37.504 41.6 57.642667l1.792 0.426667c11.648 3.2 27.52 8.746667 43.648 18.346666 33.28 19.712 67.413333 56.832 67.413334 120.490667z" fill="#ffffff" p-id="7524"></path></svg>