<?xml version="1.0" standalone="no"?><!DOCTYPE svg PUBLIC "-//W3C//DTD SVG 1.1//EN" "http://www.w3.org/Graphics/SVG/1.1/DTD/svg11.dtd"><svg t="1768582721266" class="icon" viewBox="0 0 1024 1024" version="1.1" xmlns="http://www.w3.org/2000/svg" p-id="6838" xmlns:xlink="http://www.w3.org/1999/xlink" width="24" height="24"><path d="M1002.496 329.1136L694.8864 21.504A73.3184 73.3184 0 0 0 643.072 0H73.1136C32.768 0 0 32.768 0 73.1136v877.7728C0 991.232 32.768 1024 73.1136 1024h877.7728C991.232 1024 1024 991.232 1024 950.8864V380.928c0-19.456-7.7824-38.0928-21.504-51.8144zM219.3408 73.1136h54.8864v182.8864h-54.8864V73.1136z m128 0H512v182.8864h-164.6592V73.1136z m-128 877.7728V731.3408h585.1136v219.3408H219.3408z m731.5456 0h-73.1136v-256c0-20.2752-16.384-36.6592-36.6592-36.6592H182.8864c-20.2752 0-36.6592 16.384-36.6592 36.6592v256H73.1136V73.1136h73.1136v219.3408c0 20.2752 16.384 36.6592 36.6592 36.6592h365.7728c20.2752 0 36.6592-16.384 36.6592-36.6592V73.1136h57.9584L950.8864 380.928v569.9584z m0 0" p-id="6839" fill="#ffffff"></path></svg>