<?xml version="1.0" standalone="no"?><!DOCTYPE svg PUBLIC "-//W3C//DTD SVG 1.1//EN" "http://www.w3.org/Graphics/SVG/1.1/DTD/svg11.dtd"><svg t="1768582665748" class="icon" viewBox="0 0 1170 1024" version="1.1" xmlns="http://www.w3.org/2000/svg" p-id="5767" xmlns:xlink="http://www.w3.org/1999/xlink" width="27.421875" height="24"><path d="M78.043429 1024C34.889143 1024 0 989.037714 0 945.956571V78.043429C0 34.889143 34.962286 0 78.043429 0H376.685714c8.265143 0 16.018286 4.388571 20.187429 11.629714l71.241143 122.148572h468.114285c43.154286 0 78.043429 34.889143 78.043429 77.970285l-0.073143 149.138286h78.043429a78.043429 78.043429 0 0 1 75.702857 96.987429l-163.108572 507.026285c-8.118857 32.402286-35.84 55.808-68.608 58.806858V1024H78.043429z m163.108571-585.142857l-163.108571 507.099428h851.017142l163.181715-507.026285L241.225143 438.857143zM345.234286 77.970286H78.043429l-0.073143 613.814857 87.552-271.725714a78.043429 78.043429 0 0 1 75.702857-59.099429l694.930286-0.073143 0.073142-149.138286H423.277714L345.234286 77.897143z" fill="#ffffff" p-id="5768"></path></svg>