<?xml version="1.0" standalone="no"?><!DOCTYPE svg PUBLIC "-//W3C//DTD SVG 1.1//EN" "http://www.w3.org/Graphics/SVG/1.1/DTD/svg11.dtd"><svg t="1768031214376" class="icon" viewBox="0 0 1024 1024" version="1.1" xmlns="http://www.w3.org/2000/svg" p-id="16237" xmlns:xlink="http://www.w3.org/1999/xlink" width="24" height="24"><path d="M128 832V192c0-38.4 25.6-64 64-64h448v128h128v128h64V224c0-19.2-6.4-32-19.2-44.8l-96-96c-6.4-12.8-25.6-19.2-44.8-19.2H192c-70.4 0-128 57.6-128 128v640c0 70.4 57.6 128 128 128h256v-64H192c-38.4 0-64-32-64-64z m736-64h-12.8l-76.8-102.4 147.2-198.4-51.2-38.4-134.4 185.6-134.4-185.6-51.2 38.4 147.2 198.4L620.8 768h-12.8c-51.2 0-96 44.8-96 96S556.8 960 608 960s96-44.8 96-96c0-25.6-6.4-44.8-25.6-64l57.6-76.8 57.6 76.8c-12.8 19.2-25.6 38.4-25.6 64 0 51.2 44.8 96 96 96s96-44.8 96-96-44.8-96-96-96z m-256 128c-19.2 0-32-12.8-32-32s12.8-32 32-32 32 12.8 32 32-12.8 32-32 32z m256 0c-19.2 0-32-12.8-32-32s12.8-32 32-32 32 12.8 32 32-12.8 32-32 32z" fill="#7598db" p-id="16238"></path></svg>

