<?xml version="1.0" standalone="no"?><!DOCTYPE svg PUBLIC "-//W3C//DTD SVG 1.1//EN" "http://www.w3.org/Graphics/SVG/1.1/DTD/svg11.dtd"><svg t="1768031981111" class="icon" viewBox="0 0 1141 1024" version="1.1" xmlns="http://www.w3.org/2000/svg" p-id="27172" xmlns:xlink="http://www.w3.org/1999/xlink" width="26.7421875" height="24"><path d="M862.964005 421.236151l-188.235776 54.125714a16.839241 16.839241 0 0 1-20.884919-21.322606l61.725549-178.942537a16.839241 16.839241 0 0 1 4.099511-6.670628L906.210743 81.723392a9.294409 9.294409 0 0 1 1.80341-2.296101l69.160375-69.105371c14.409728-13.760219 37.091035-13.760219 51.500763 0l100.706597 94.418651a36.357266 36.357266 0 0 1-0.055003 51.555767L1058.581943 225.783223a7.981349 7.981349 0 0 1-1.749577 2.2961l-186.651209 188.837303a16.073874 16.073874 0 0 1-7.217152 4.318355zM837.105371 367.98464l237.386606-237.495442-68.777691-63.747804C845.74325 222.392905 765.538889 300.847689 765.156206 302.050743l-47.565093 108.141422L837.105371 367.98464z m25.859804 53.251511l-188.235776 54.125714a16.839241 16.839241 0 0 1-20.884919-21.322606l61.72555-178.942537a16.839241 16.839241 0 0 1 4.099511-6.670628L906.210743 81.723392a9.294409 9.294409 0 0 1 1.80341-2.296101l69.160375-69.105371c14.409728-13.760219 37.091035-13.760219 51.500763 0l100.706597 94.418651a36.357266 36.357266 0 0 1-0.055003 51.555767L1058.581943 225.783223a7.981349 7.981349 0 0 1-1.749577 2.2961l-186.651209 188.837303a16.073874 16.073874 0 0 1-7.217152 4.318355zM837.105371 367.98464l237.386606-237.495442-68.777691-63.747804C845.74325 222.392905 765.538889 300.847689 765.156206 302.050743l-47.565093 108.141422L837.105371 367.98464z" fill="#7598db" p-id="27173"></path><path d="M1009.553993 1004.507721v18.724572H0V122.88h457.179136v74.898286H74.898286v750.555721h859.757421V664.319707h74.898286z" fill="#7598db" p-id="27174"></path><path d="M992.246638 1006.897445l-6.200174-321.433015-19.49579 23.860955v231.166537L648.873106 510.843758 455.217737 616.043081l-77.694098-105.150171-321.400247 174.57152V184.905143L7.021714 231.223881v776.445952h938.983424c30.175817 0 16.984357-0.772389 16.984357-0.772388h29.257143zM633.826743 578.680539l278.427355 376.560494H706.041563L486.735872 658.584137l147.093211-79.903598h-0.00234zM59.450514 958.569326V743.318674l303.012718-164.583131 64.194853 86.882011 0.050322-0.037449L643.301376 958.569326H59.450514z" fill="#7598db" p-id="27175"></path></svg>

