<?xml version="1.0" standalone="no"?><!DOCTYPE svg PUBLIC "-//W3C//DTD SVG 1.1//EN" "http://www.w3.org/Graphics/SVG/1.1/DTD/svg11.dtd"><svg t="1768030505620" class="icon" viewBox="0 0 1152 1024" version="1.1" xmlns="http://www.w3.org/2000/svg" p-id="2500" xmlns:xlink="http://www.w3.org/1999/xlink" width="27" height="24"><path d="M1145.344 395.84a32.96 32.96 0 0 0-23.744-15.168h-91.072V248.704a87.744 87.744 0 0 0-87.68-87.04H593.728l-128-149.76A34.944 34.944 0 0 0 440.704 0H87.104C38.976 0 0 39.04 0 87.04v878.848a20.48 20.48 0 0 0 3.968 8.576 29.12 29.12 0 0 0 9.856 7.936h996.928c15.744 0.256 29.44-10.88 32.32-26.432L1152 412.352a32.96 32.96 0 0 0-6.592-16.512zM87.104 65.984h337.792l126.016 151.04c6.4 7.296 15.36 11.52 25.088 11.904h366.784a21.76 21.76 0 0 1 21.76 21.12v131.968H163.648a31.68 31.68 0 0 0-31.68 23.68L65.92 678.272V84.48a21.76 21.76 0 0 1 21.12-18.56z m896.64 857.664H75.136L197.952 446.72h881.408l-95.68 476.992z" p-id="2501" fill="#7598db"></path></svg>

